<?xml version="1.0" standalone="no"?>
<!DOCTYPE svg PUBLIC "-//W3C//DTD SVG 20010904//EN"
 "http://www.w3.org/TR/2001/REC-SVG-20010904/DTD/svg10.dtd">
<svg version="1.0" xmlns="http://www.w3.org/2000/svg"
 width="873.000000pt" height="683.000000pt" viewBox="0 0 873.000000 683.000000"
 preserveAspectRatio="xMidYMid meet">
<metadata>
Created by potrace 1.16, written by Peter Selinger 2001-2019
</metadata>
<g transform="translate(0.000000,683.000000) scale(0.100000,-0.100000)"
fill="#000000" stroke="none">
<path d="M0 3730 l0 -3100 98 0 c137 0 296 -29 368 -67 121 -64 409 -203 421
-203 4 0 19 -9 33 -20 l25 -19 -28 -10 c-15 -6 -38 -11 -50 -10 -174 2 -434
-4 -517 -12 -136 -14 -211 -17 -287 -9 l-63 6 0 -143 0 -143 4365 0 4365 0 0
104 c0 99 -1 104 -20 99 -12 -3 -20 0 -20 7 0 6 9 14 20 17 23 6 17 21 -14 33
-19 8 -19 9 7 9 25 1 27 4 26 39 -1 20 -3 29 -6 20 -2 -9 -16 -18 -31 -20 -20
-2 -27 -9 -27 -25 0 -12 -10 -32 -21 -45 -12 -12 -30 -36 -40 -52 l-19 -30 25
8 c14 4 38 10 53 13 24 5 28 3 25 -13 -3 -14 -11 -18 -29 -16 -15 1 -32 -4
-39 -13 -7 -8 -21 -15 -31 -15 -10 0 -20 -4 -24 -10 -11 -18 -37 2 -32 26 4
25 9 24 -88 28 -30 2 -34 73 -5 93 18 13 19 17 7 26 -28 23 -31 120 -3 99 6
-5 40 -5 76 -2 36 4 56 8 45 9 -19 2 -19 2 -2 16 18 13 17 14 -5 18 -21 4 -20
4 5 6 15 0 27 5 27 9 0 12 56 43 64 35 3 -4 13 2 21 13 8 10 15 15 15 9 0 -5
5 -3 10 5 6 9 10 10 10 3 0 -7 -7 -16 -17 -21 -14 -9 -14 -10 5 -16 22 -8 30
-26 11 -26 -5 0 -7 -5 -4 -10 19 -31 25 5 25 160 l0 170 -26 0 c-41 0 -102 21
-120 42 -16 17 -14 17 41 -2 84 -29 105 -27 105 9 0 28 -4 30 -52 41 -84 17
-86 24 -16 51 45 18 64 30 66 45 3 19 -1 20 -60 16 -74 -5 -124 -26 -135 -55
-8 -25 -8 -23 2 -56 5 -16 4 -21 -4 -17 -24 15 -9 -24 17 -43 l27 -20 -45 -1
c-42 -1 -43 -2 -20 -13 l25 -11 -27 -4 c-16 -2 -28 -8 -28 -13 0 -5 3 -8 8 -8
23 4 31 -5 37 -40 3 -21 17 -54 31 -72 27 -37 32 -58 9 -39 -9 8 -15 9 -15 2
0 -18 16 -22 49 -12 21 6 29 5 25 -1 -8 -13 -49 -30 -99 -40 -22 -4 -53 -11
-69 -15 l-29 -7 6 108 c4 59 12 114 17 121 8 8 8 14 0 19 -18 11 -11 27 10 20
26 -8 26 11 0 25 -17 9 -20 21 -20 76 0 58 -2 67 -21 71 -20 6 -20 6 2 29 22
24 19 44 -8 44 -9 0 -13 3 -10 7 4 3 19 0 35 -7 15 -7 41 -19 57 -27 39 -19
162 -15 129 4 -11 6 -48 13 -82 14 -40 1 -63 7 -66 16 -3 7 -12 13 -21 13 -12
0 -15 13 -15 63 0 128 -13 392 -19 399 -3 3 -130 12 -281 19 -273 12 -275 12
-302 37 -15 14 -39 42 -53 63 -17 23 -42 43 -69 53 -41 16 -46 16 -98 -4 -56
-21 -115 -74 -136 -122 -9 -23 -9 -26 4 -21 10 4 12 0 8 -11 -6 -15 -8 -15
-24 -1 -16 15 -18 14 -24 -7 -6 -23 -7 -23 -21 -4 -8 11 -13 28 -9 38 4 14 0
18 -21 18 -18 0 -25 -4 -22 -12 3 -7 12 -30 21 -51 22 -51 4 -47 -20 5 -10 23
-30 55 -42 70 -24 28 -24 28 -48 9 -22 -18 -28 -18 -77 -5 -56 15 -180 18
-212 4 -15 -6 -27 -1 -52 22 -40 38 -66 28 -29 -11 l26 -27 -31 -30 c-41 -39
-69 -95 -69 -139 0 -19 -4 -35 -9 -35 -5 0 -16 -3 -25 -6 -14 -5 -16 4 -16 59
0 36 -4 68 -9 71 -5 3 -12 18 -16 33 -3 16 -13 35 -20 43 -7 8 -16 33 -18 55
-3 22 -8 47 -12 56 -3 10 -2 20 4 24 6 3 11 11 11 17 0 6 -6 5 -16 -3 -22 -18
-10 -111 22 -167 29 -49 47 -203 25 -216 -6 -4 -11 -21 -11 -37 0 -22 -7 -32
-25 -41 -62 -28 -9 -48 131 -47 l70 0 -4 -36 c-4 -31 -16 -46 -77 -99 -41 -34
-94 -73 -120 -86 -45 -23 -61 -37 -53 -45 7 -7 120 54 168 91 36 29 51 34 82
31 21 -2 41 -7 44 -10 10 -10 -7 -65 -22 -71 -9 -3 -12 -10 -9 -16 3 -5 1 -10
-4 -10 -16 0 -13 21 6 42 17 19 5 26 -14 7 -23 -23 -195 -109 -218 -109 -9 0
-25 -5 -36 -10 -15 -9 -18 -7 -17 7 4 31 -24 151 -142 613 -58 226 -110 452
-105 460 3 4 25 5 50 2 41 -4 45 -3 45 17 0 11 5 21 11 21 7 0 9 -9 5 -24 -5
-19 1 -28 32 -50 22 -15 52 -41 68 -59 16 -17 48 -48 70 -68 23 -20 43 -41 45
-46 7 -18 143 -132 151 -127 17 11 4 32 -62 103 -39 40 -70 76 -71 80 0 3 -29
31 -64 61 -52 44 -64 61 -64 85 -1 17 3 36 8 44 13 21 41 5 41 -24 0 -22 4
-25 34 -25 34 0 35 1 30 33 -4 23 2 46 22 82 15 28 44 82 64 120 21 39 86 158
145 265 59 107 134 243 166 302 56 102 72 159 49 173 -5 3 -10 -1 -10 -11 0
-9 -15 -42 -34 -73 -18 -31 -59 -105 -91 -166 -32 -60 -81 -153 -110 -205 -28
-52 -55 -102 -59 -110 -4 -8 -12 -24 -19 -35 -7 -11 -36 -63 -64 -115 -29 -52
-58 -104 -66 -114 -13 -18 -14 -18 -21 7 -5 22 -14 28 -46 33 l-39 6 18 27
c19 27 233 404 337 593 53 96 62 108 87 108 17 0 27 5 27 15 0 9 8 19 18 22
26 10 64 54 58 69 -9 24 -66 46 -102 39 -21 -3 -34 -2 -34 5 0 5 6 11 13 11
55 6 76 3 99 -13 34 -23 39 -20 63 32 17 38 17 42 2 58 -13 13 -39 17 -119 19
-55 1 -103 5 -106 8 -3 3 -26 5 -52 5 -44 0 -50 -3 -84 -47 -39 -51 -46 -91
-20 -118 14 -14 15 -20 4 -41 -16 -30 -11 -35 37 -39 35 -2 38 -5 36 -31 l-2
-29 15 27 c8 16 20 25 28 22 7 -3 19 2 26 11 8 10 28 15 59 14 l46 -2 -46 -10
c-55 -12 -42 7 -232 -332 -80 -143 -159 -285 -177 -315 -17 -30 -36 -67 -43
-82 -9 -23 -15 -26 -41 -21 -17 3 -33 10 -34 15 -9 22 -22 -8 -16 -38 4 -22 2
-34 -5 -34 -6 0 -11 9 -11 19 0 24 -23 27 -300 41 -248 12 -449 31 -456 42 -3
4 37 8 88 9 70 0 87 3 69 10 -13 5 -22 11 -20 13 9 9 533 -14 542 -23 13 -13
54 -14 62 -2 3 6 18 6 36 1 23 -7 31 -6 36 6 3 8 4 16 2 18 -2 2 -85 9 -184
15 -176 11 -578 33 -602 34 -7 0 -13 3 -13 6 0 3 53 5 117 4 138 -2 95 10 -79
22 -59 4 -105 11 -103 15 3 5 32 11 65 15 42 5 60 11 60 21 0 8 -7 17 -16 21
-23 9 -133 -13 -189 -38 -44 -19 -58 -20 -196 -14 -82 4 -151 11 -154 14 -2 4
-14 66 -25 137 -12 71 -35 164 -52 207 -16 43 -28 80 -26 82 1 2 82 7 179 11
179 7 196 11 217 51 15 27 17 76 3 53 -6 -8 -7 -18 -5 -22 3 -4 -6 -4 -20 2
-14 5 -26 6 -26 2 0 -4 -5 0 -10 8 -8 13 -10 13 -10 -1 0 -17 -37 -56 -45 -47
-3 3 4 13 15 23 23 21 26 48 6 64 -18 15 -46 3 -57 -25 -7 -21 -15 -24 -61
-24 -29 0 -68 -4 -86 -9 l-32 -10 -2 92 c-2 51 -2 118 -2 150 1 39 -2 55 -9
48 -6 -6 -11 -59 -11 -118 l-1 -108 -40 0 c-33 0 -41 4 -43 22 -6 38 -47 73
-87 73 -21 0 -49 9 -66 21 -16 11 -29 16 -29 11 0 -6 6 -12 12 -14 7 -3 13
-13 13 -24 0 -16 9 -20 54 -24 45 -4 55 -9 63 -29 7 -20 6 -22 -6 -12 -8 7
-25 9 -39 6 -28 -7 -87 28 -87 52 0 7 -11 13 -26 13 -15 0 -35 10 -45 22 -23
26 -24 17 -3 -23 8 -17 21 -28 28 -26 7 3 19 1 27 -4 11 -7 11 -9 -3 -9 -10 0
-18 -5 -18 -11 0 -6 9 -9 20 -6 11 3 20 2 20 -3 0 -4 9 -10 21 -13 17 -5 19
-9 9 -27 -10 -18 -17 -20 -63 -15 -140 16 -134 14 -130 39 6 30 -22 42 -53 21
-29 -19 -32 -19 -37 3 -4 15 -5 15 -6 0 -1 -13 -9 -15 -43 -11 -36 5 -64 20
-55 30 1 1 32 2 67 3 36 1 73 4 83 7 25 7 21 23 -7 23 -13 0 -27 6 -29 13 -4
9 -6 9 -6 0 -1 -10 -26 -13 -92 -13 -49 0 -88 4 -85 9 3 4 -13 3 -35 -3 -30
-8 -45 -7 -60 3 -12 7 -24 10 -27 7 -3 -3 -1 -6 5 -6 6 0 13 -9 16 -20 4 -15
14 -20 36 -20 17 0 31 5 31 10 0 6 11 3 25 -6 14 -9 34 -14 45 -11 14 4 20 0
20 -12 0 -13 -8 -17 -37 -16 -21 1 -50 6 -64 13 -41 17 -91 -3 -59 -23 6 -3
10 -1 10 4 0 6 7 11 15 11 8 0 15 -4 15 -10 0 -5 9 -10 20 -10 20 0 20 -1 4
-25 -10 -16 -23 -24 -33 -20 -9 2 -37 5 -63 6 -27 1 -48 5 -48 9 0 4 -15 6
-32 5 -18 -2 -33 -4 -33 -5 0 -1 -10 -3 -21 -6 -20 -3 -21 -1 -14 34 l9 37
-19 -22 c-17 -22 -47 -33 -35 -14 3 5 0 13 -6 16 -15 10 -38 -25 -39 -57 0
-15 -4 -30 -10 -33 -5 -3 -10 -1 -10 6 0 7 -3 9 -7 6 -3 -4 -12 -2 -20 4 -9 9
-13 8 -13 0 0 -16 -25 -14 -40 4 -17 21 -44 19 -65 -5 -10 -12 -25 -18 -32
-16 -8 3 -16 -7 -21 -27 -5 -18 -15 -33 -23 -35 -21 -4 -42 101 -37 183 2 36
2 65 0 65 -2 0 -13 -5 -24 -11 -15 -8 -19 -8 -14 0 5 7 -2 11 -18 11 -20 0
-26 5 -26 22 0 20 -1 20 -20 3 -18 -17 -19 -16 -25 11 -4 16 -9 37 -12 47 -3
11 1 17 11 17 8 0 20 -8 26 -17 9 -14 10 -11 5 18 -4 28 -2 38 10 43 11 4 15
17 14 45 -2 22 4 49 13 62 18 29 30 72 33 123 2 21 8 42 15 46 6 4 10 11 9 16
-5 17 12 54 36 80 14 15 27 35 31 46 3 11 15 29 26 40 20 20 20 20 -1 39 -12
11 -21 26 -21 34 0 8 -9 15 -20 15 -14 0 -20 -7 -20 -22 0 -23 -16 -56 -23
-48 -2 3 -8 23 -13 44 -11 48 -34 60 -35 19 -1 -43 -23 -95 -47 -111 -19 -13
-22 -13 -22 1 0 8 -3 22 -6 30 -4 11 2 16 23 19 l28 3 -2 175 c-3 182 -16 270
-54 366 -20 50 -20 51 -56 45 -31 -5 -38 -11 -45 -39 -8 -28 -12 -32 -31 -26
-26 8 -123 8 -137 -1 -5 -3 -30 4 -56 15 -37 17 -48 19 -55 9 -6 -10 -11 -5
-18 14 -18 46 -14 77 12 86 37 14 235 3 320 -18 38 -9 46 -4 25 17 -9 9 -3 11
23 9 19 -1 37 -6 41 -11 3 -5 4 17 1 50 l-5 60 46 48 c51 54 49 50 37 74 -5 9
-12 25 -15 35 -8 26 -26 11 -26 -22 0 -16 -6 -34 -14 -40 -16 -13 -18 -9 -32
59 -9 47 -44 71 -44 31 0 -11 -5 -21 -12 -23 -9 -3 -8 -23 6 -79 9 -41 18 -87
19 -104 2 -29 1 -30 -38 -28 -44 3 -863 64 -1170 88 -309 24 -280 29 -420 -75
l-120 -90 -65 0 c-131 0 -542 30 -563 41 -12 7 -49 37 -82 68 -132 123 -155
141 -173 141 -19 0 -52 29 -52 46 0 16 -55 64 -73 64 -9 0 -17 7 -17 15 0 8
-4 15 -10 15 -5 0 -10 -5 -10 -10 0 -7 -6 -7 -19 0 -29 15 -97 12 -111 -5 -15
-18 -80 -20 -101 -2 -12 9 -14 26 -11 66 l4 53 62 -6 c161 -15 202 -16 216 -7
8 6 12 12 9 15 -5 6 -288 29 -364 30 l-50 1 0 -40 c0 -38 2 -40 30 -41 49 -1
52 -3 57 -29 5 -23 2 -25 -28 -25 -19 0 -34 -4 -34 -9 0 -18 26 -29 70 -30 87
0 155 -12 163 -26 12 -22 25 -18 29 7 2 16 11 22 33 23 42 3 65 -12 65 -40 0
-13 5 -27 11 -30 5 -4 8 -12 6 -18 -2 -6 14 -26 35 -45 29 -26 36 -37 26 -43
-10 -7 -10 -9 -1 -9 7 0 10 -7 7 -15 -4 -8 -1 -15 5 -15 6 0 11 7 11 16 0 11
5 14 16 10 9 -3 18 -6 20 -6 10 0 2 -35 -12 -51 -12 -14 -26 -16 -76 -11 -45
4 -59 2 -54 -6 4 -7 3 -12 -3 -12 -5 0 -13 5 -16 10 -4 6 -15 8 -25 5 -13 -4
-20 0 -25 15 -7 21 -7 21 -28 3 -16 -14 -35 -18 -67 -17 -25 1 -57 -2 -72 -8
-14 -5 -35 -8 -45 -6 -14 3 -12 7 12 19 55 27 40 82 -26 93 -32 6 -37 4 -43
-16 -3 -13 -6 -37 -6 -54 0 -24 -5 -33 -21 -37 -26 -7 -141 11 -153 24 -6 5
-11 53 -12 106 -2 54 -6 122 -9 152 l-7 53 81 -3 c60 -3 81 -1 81 8 0 9 -18
14 -52 15 -46 2 -69 3 -136 7 -11 1 -13 19 -11 75 3 61 0 78 -15 95 -10 11
-16 26 -13 33 3 8 6 5 7 -7 1 -19 1 -19 11 -2 7 13 7 22 0 31 -12 14 -5 26 16
26 7 0 13 -8 14 -17 0 -11 3 -13 6 -5 7 19 31 14 38 -8 3 -11 14 -24 24 -30
28 -14 98 -15 115 -1 15 12 42 79 34 86 -1 2 -21 -5 -42 -16 -41 -20 -61 -18
-33 4 37 27 15 90 -27 74 -19 -7 -22 -57 -4 -75 22 -22 -2 -26 -31 -4 -18 13
-31 17 -33 10 -6 -16 -38 20 -38 43 0 10 -5 18 -12 17 -8 -2 -13 12 -14 40
l-2 42 59 0 c75 0 70 20 -4 21 -40 1 -46 3 -27 8 14 5 41 6 60 3 31 -4 33 -3
19 9 -17 15 -35 54 -21 45 5 -3 27 14 50 38 29 30 40 48 36 63 -5 16 1 23 28
33 29 11 31 13 13 20 -11 4 -26 5 -32 3 -7 -3 -13 2 -13 11 0 13 4 15 19 6 26
-13 84 6 61 20 -8 6 -23 10 -32 10 -29 0 -20 17 12 24 33 6 40 22 13 29 -15 3
-14 6 7 14 24 10 24 11 5 19 -19 8 -19 8 5 14 21 5 26 15 35 60 10 53 42 120
58 120 4 0 7 16 7 36 0 21 -4 33 -10 29 -6 -3 -10 -19 -10 -36 0 -22 -5 -29
-20 -29 -27 0 -27 36 0 52 11 7 20 21 20 30 0 14 6 17 33 13 17 -3 26 -2 19 1
-9 4 -11 20 -6 54 5 42 4 49 -12 53 -11 3 5 5 34 6 33 1 51 5 47 11 -3 6 -15
10 -26 10 -10 0 -19 5 -19 10 0 6 11 10 25 10 26 0 34 15 13 23 -10 4 -10 6 0
6 18 1 15 19 -5 24 -10 2 -7 3 7 2 14 -2 34 1 45 5 19 8 19 9 -2 9 -12 1 -27
9 -32 19 -8 15 -4 17 42 15 51 -2 52 -2 17 9 -19 6 -29 13 -22 15 6 3 12 11
12 19 0 8 10 15 23 15 17 1 16 3 -7 8 -39 8 -39 25 -1 30 29 4 28 4 -15 16
l-45 13 58 1 c53 1 71 11 47 26 -6 4 -8 11 -4 16 3 5 -2 21 -10 34 -9 14 -12
25 -6 25 5 0 10 -5 10 -11 0 -5 5 -7 10 -4 8 5 8 11 0 20 -9 11 -7 12 8 8 14
-3 25 4 38 25 10 17 28 33 42 37 19 5 22 8 12 20 -10 12 -9 15 4 15 18 0 21
21 5 37 -13 13 13 60 36 65 11 2 11 11 -2 46 -10 32 -11 47 -3 56 5 8 8 21 4
30 -4 11 0 16 14 16 26 0 37 -16 18 -23 -10 -4 -13 -15 -10 -34 7 -39 14 -42
14 -5 0 21 7 35 20 42 24 13 26 38 5 46 -26 10 -12 38 25 50 19 7 27 12 18 13
-23 1 -23 17 -1 30 11 7 13 11 5 11 -9 0 -7 9 8 30 l21 30 -595 0 -596 0 0
-3100z m239 758 c-4 -46 1 -77 16 -92 17 -17 20 -53 4 -58 -17 -6 -13 -166 6
-223 23 -66 62 -133 83 -139 26 -9 94 -5 123 6 15 5 32 21 38 34 11 26 11 26
132 22 115 -3 122 -4 130 -25 5 -13 17 -23 28 -23 14 0 21 -8 23 -27 3 -27 6
-28 61 -31 57 -3 57 -3 63 28 5 21 12 30 23 28 13 -3 16 -20 17 -103 0 -55 4
-112 8 -127 11 -37 -5 -35 -26 2 -23 40 -61 41 -85 3 -27 -43 -36 -45 -64 -12
-22 28 -30 31 -67 27 -45 -4 -56 6 -20 18 12 3 28 13 35 20 8 7 20 11 27 8 7
-3 16 2 19 10 8 21 34 20 46 -1 6 -10 11 -13 11 -7 0 12 -37 54 -48 54 -4 0
-27 -16 -51 -35 -24 -19 -49 -35 -55 -35 -7 0 -11 22 -11 57 0 38 -4 58 -13
61 -10 3 -13 -10 -11 -56 2 -40 -2 -66 -11 -77 -11 -13 -11 -21 -2 -36 9 -14
9 -23 1 -38 -18 -27 -7 -45 55 -90 59 -44 118 -56 130 -26 3 8 18 15 34 15 23
0 30 -6 40 -33 20 -54 55 -81 105 -79 35 2 48 9 75 39 l33 37 88 -3 c55 -2 98
2 111 9 16 9 29 9 44 2 11 -6 30 -12 41 -14 19 -3 20 -13 25 -143 l5 -140 240
-6 c132 -4 263 -7 291 -8 50 -1 52 -2 58 -35 4 -23 24 -50 64 -88 104 -100 55
-92 652 -98 l525 -5 8 -80 c9 -95 19 -124 64 -177 18 -22 33 -44 33 -48 0 -9
-42 -61 -125 -155 -29 -33 -92 -107 -140 -165 -49 -58 -97 -116 -109 -129 -12
-13 -15 -20 -7 -16 8 5 28 24 45 44 17 19 49 55 71 78 22 24 45 49 50 56 12
15 138 160 145 167 3 3 27 31 53 63 27 31 52 57 57 57 5 0 -1 -10 -13 -23 -12
-13 -29 -32 -37 -43 -9 -10 -47 -55 -86 -99 -38 -44 -115 -134 -169 -200 -105
-126 -115 -136 -126 -129 -4 2 -5 -5 -2 -16 5 -20 7 -20 31 -4 18 12 27 13 30
6 2 -7 15 -12 30 -12 19 0 23 -3 15 -11 -6 -6 -19 -9 -29 -7 -24 4 -48 -37
-35 -60 8 -13 11 -12 22 6 14 22 49 31 49 12 0 -5 -9 -10 -20 -10 -11 0 -20
-2 -20 -4 0 -2 -3 -11 -6 -20 -8 -21 29 -22 46 -1 17 21 40 19 40 -4 0 -14 5
-18 20 -14 16 4 18 9 9 24 -8 15 -6 21 8 26 10 4 23 12 28 19 7 9 25 10 65 4
30 -4 134 -13 230 -20 223 -15 218 -14 213 -44 -6 -29 -1 -28 -170 -26 l-133
1 15 -38 c9 -21 19 -45 24 -53 24 -45 112 -263 107 -267 -5 -5 -39 64 -60 121
-3 10 -9 16 -13 13 -3 -4 4 -30 16 -59 54 -126 79 -169 69 -113 -3 13 -1 23 4
22 5 -1 22 33 38 75 21 57 27 88 23 118 -6 42 8 54 26 23 10 -16 10 -17 11 -1
0 9 4 28 9 41 9 23 13 24 48 16 21 -6 79 -10 130 -10 66 0 93 -4 96 -13 8 -20
47 -27 54 -10 7 18 69 19 76 0 3 -7 2 -17 -3 -22 -5 -5 -27 -65 -50 -134 -23
-69 -55 -154 -70 -190 -16 -36 -40 -101 -53 -145 -33 -105 -85 -255 -97 -280
-5 -11 -43 -114 -84 -230 -41 -116 -84 -236 -96 -269 -18 -48 -20 -60 -9 -67
17 -10 25 -3 37 41 6 19 25 73 42 120 17 47 68 186 112 310 44 124 86 236 94
250 13 24 13 24 15 -20 4 -89 1 -102 -75 -315 -20 -55 -56 -161 -82 -235 -25
-74 -50 -143 -55 -153 -6 -11 -6 -17 1 -17 5 0 121 -18 258 -39 136 -21 270
-42 297 -46 28 -3 82 -13 120 -20 39 -7 162 -28 275 -46 113 -17 208 -35 212
-38 3 -3 -1 -23 -9 -44 -11 -27 -20 -36 -32 -33 -9 3 -61 13 -116 21 -55 9
-330 54 -612 100 -281 47 -516 85 -522 85 -25 0 -8 -28 20 -34 19 -3 33 -13
36 -25 5 -19 6 -19 24 -2 18 17 23 17 122 -1 56 -10 165 -30 242 -43 198 -34
343 -59 550 -96 99 -17 206 -34 238 -36 31 -3 60 -9 62 -13 3 -5 1 -20 -5 -35
-8 -20 -15 -26 -30 -22 -15 4 -22 -3 -31 -30 -11 -35 -12 -35 -58 -29 -25 3
-122 19 -216 36 -93 17 -287 51 -430 75 -465 80 -589 103 -623 116 -25 8 -36
9 -45 0 -17 -17 -45 -13 -56 8 -8 14 -29 21 -78 29 -38 5 -69 6 -71 1 -7 -17
-47 -9 -60 12 -12 18 -20 21 -55 16 -23 -3 -62 -1 -87 4 -25 5 -133 25 -240
44 -107 19 -231 42 -275 50 -288 55 -396 74 -437 80 -27 4 -48 10 -48 14 1 3
9 22 18 41 14 28 22 34 43 32 19 -2 28 3 37 22 12 27 7 36 -20 36 -22 0 -23
12 -3 50 18 35 13 34 118 15 261 -47 382 -68 467 -80 52 -8 127 -21 167 -28
40 -8 70 -10 67 -5 -3 4 -12 8 -21 8 -9 0 -39 7 -67 15 -28 8 -70 20 -93 25
-27 7 -43 16 -43 26 0 11 -6 13 -20 9 -10 -3 -32 1 -47 9 -15 8 -23 15 -18 16
17 1 -107 60 -126 60 -10 0 -21 4 -24 10 -3 5 -18 10 -33 10 -29 0 -20 15 13
23 11 3 -4 5 -32 6 -36 1 -53 -3 -54 -11 0 -7 -4 -4 -8 7 -7 18 -18 20 -99 21
-56 1 -98 6 -107 14 -8 6 -19 9 -25 5 -6 -4 -17 -2 -25 5 -10 8 -19 9 -35 0
-12 -6 -34 -8 -51 -5 -16 4 -35 2 -42 -3 -7 -6 -42 -9 -79 -7 -41 1 -65 -2
-61 -7 3 -6 -7 -7 -26 -3 -18 4 -31 3 -31 -3 0 -5 -23 -12 -51 -16 -55 -7
-253 -58 -574 -145 -129 -36 -454 -136 -495 -153 -66 -27 -173 -58 -182 -52
-14 9 19 34 44 34 11 0 39 11 64 25 25 14 60 25 79 25 19 0 35 4 35 9 0 5 15
13 33 16 17 4 41 12 52 18 19 10 18 11 -10 18 -17 5 -34 4 -39 -1 -6 -6 -20
-10 -33 -10 -13 0 -31 -4 -41 -9 -23 -11 -149 -49 -192 -57 -19 -4 -44 -13
-55 -20 -23 -16 -81 -19 -90 -4 -4 6 6 10 24 10 16 0 33 5 36 11 4 5 12 8 18
6 7 -2 17 2 22 8 6 7 35 19 65 28 30 9 93 28 140 43 47 14 96 28 110 31 14 2
32 7 40 10 8 4 19 5 23 4 5 -1 20 7 33 18 14 11 45 23 70 27 24 3 47 10 50 16
3 5 14 6 25 3 10 -4 19 -2 19 2 0 5 42 21 92 37 295 90 358 110 402 127 27 10
56 19 66 19 9 0 25 9 35 20 10 11 34 22 54 26 42 7 97 32 125 57 11 10 26 15
33 13 24 -10 13 11 -12 22 -14 6 -25 16 -25 22 0 6 5 8 11 4 20 -12 99 -10
104 4 3 8 -7 12 -32 12 -30 0 -34 2 -23 15 6 8 8 19 4 26 -5 9 0 10 18 6 18
-5 28 -2 32 8 3 8 15 15 27 15 18 0 21 5 17 30 -3 16 -1 30 4 30 4 0 8 7 8 15
0 19 30 32 39 17 4 -7 7 4 7 22 0 19 -4 34 -10 33 -5 -1 -12 7 -14 17 -3 14 0
17 13 13 10 -5 14 -3 9 4 -4 7 4 20 17 31 14 11 19 21 13 24 -6 3 -20 11 -30
19 -18 14 -18 14 4 15 12 0 22 5 22 10 0 12 -4 12 -60 -1 -25 -6 -67 -14 -95
-19 -27 -5 -160 -32 -295 -60 -135 -27 -324 -66 -420 -85 -96 -19 -206 -41
-245 -49 -131 -28 -234 -47 -252 -47 -15 0 -81 9 -178 25 -11 2 -25 4 -31 5
-6 0 -14 22 -18 48 -10 76 -87 183 -132 183 -8 0 -14 7 -14 15 0 12 5 12 30 1
42 -17 100 -71 100 -93 0 -15 2 -16 10 -3 8 13 10 13 11 -2 1 -10 2 -23 3 -28
0 -6 17 -18 36 -28 30 -14 35 -22 35 -51 0 -34 17 -52 30 -32 3 6 1 11 -4 11
-16 0 -13 48 6 100 19 51 41 82 54 74 16 -9 48 6 54 27 4 10 20 26 36 34 22
12 29 22 29 46 0 18 4 28 10 24 17 -10 70 18 70 37 0 10 5 18 10 18 6 0 10 16
10 35 0 29 5 37 26 45 14 6 36 10 50 10 19 0 24 5 24 24 0 18 8 27 30 35 26 8
30 15 30 45 0 26 4 36 16 36 21 0 47 27 34 35 -14 9 -13 45 1 45 7 0 0 11 -14
24 -22 20 -24 26 -13 42 24 36 26 52 5 47 -23 -6 -27 22 -5 34 13 8 20 36 17
76 -1 13 -10 17 -35 17 -19 0 -37 4 -40 9 -8 12 23 23 45 16 14 -5 19 -1 19
14 0 12 -7 21 -15 21 -8 0 -15 -5 -15 -12 0 -6 -7 -4 -18 5 -10 10 -25 17 -33
17 -8 0 -4 6 9 16 26 18 21 31 -22 50 -18 8 -24 13 -13 14 24 0 22 20 -3 20
-23 0 -27 18 -5 26 22 9 18 24 -5 24 -13 0 -24 10 -30 25 -5 14 -16 25 -25 25
-8 0 -15 6 -15 14 0 7 -9 16 -20 19 -14 3 -20 14 -20 31 0 26 -13 35 -25 16
-11 -18 -35 -11 -35 10 0 14 -7 20 -24 20 -34 0 -86 11 -86 19 0 3 25 4 55 3
43 -3 55 -1 55 11 0 10 -16 17 -50 21 -54 7 -78 26 -33 26 l28 1 -25 20 c-54
43 -89 79 -95 98 -4 13 -15 21 -27 21 -25 0 -58 27 -58 47 0 7 -8 13 -19 13
-10 0 -24 7 -31 15 -10 12 -10 15 4 15 23 0 20 31 -4 37 -11 3 -20 13 -20 22
0 21 -19 41 -39 41 -13 -1 -12 -4 3 -15 19 -15 19 -15 -2 -15 -13 0 -22 6 -22
15 0 9 -9 15 -24 15 -37 0 -42 19 -7 26 39 8 40 20 1 27 -16 4 -30 13 -30 21
0 21 -30 43 -39 28 -5 -9 -12 -9 -26 2 -19 14 -19 15 -2 34 18 20 18 20 -2 27
-12 3 -21 12 -21 20 0 7 -14 25 -32 40 -25 21 -29 29 -18 35 12 7 11 10 -3 16
-14 5 -15 9 -6 20 9 11 8 14 -7 14 -17 0 -17 1 2 15 16 13 17 16 4 25 -10 6
-11 10 -2 10 21 0 13 30 -15 55 l-28 24 23 22 c19 17 23 27 17 53 -13 55 -17
227 -6 240 7 9 5 17 -9 29 -11 9 -20 26 -20 37 0 18 3 19 21 9 19 -10 20 -8
14 10 -4 12 -2 21 4 21 6 0 11 7 11 15 0 8 8 15 18 15 10 1 3 7 -15 15 -38 16
-45 50 -12 58 17 5 19 9 9 26 -6 12 -15 21 -20 21 -6 0 -10 9 -10 20 0 22 26
28 33 8 2 -7 8 -9 13 -5 5 4 4 11 -2 15 -6 4 -16 17 -23 29 -10 19 -8 24 10
34 17 9 19 13 8 20 -11 6 -10 9 3 14 9 4 14 13 11 21 -7 19 15 44 41 45 19 1
19 2 -3 8 -26 7 -41 31 -21 31 10 0 10 3 0 15 -7 8 -10 26 -8 40 3 14 1 25 -3
25 -16 0 -9 25 14 51 19 23 25 25 40 14 9 -6 14 -15 10 -18 -3 -4 -1 -7 5 -7
7 0 12 14 12 30 0 17 5 30 10 30 6 0 10 -10 9 -22z m2154 -120 c37 -1 72 -7
77 -13 5 -5 7 -34 6 -63 -2 -42 -9 -59 -29 -80 -22 -22 -27 -23 -27 -9 0 20
-13 22 -39 6 -11 -8 -31 -9 -57 -4 -21 5 -42 8 -46 7 -5 -1 -9 15 -9 36 -1 20
-3 51 -4 67 -5 52 4 67 33 61 15 -3 58 -7 95 -8z m425 -74 c152 -8 308 -22
345 -30 37 -9 81 -13 97 -9 31 7 36 0 20 -25 -6 -10 -10 -11 -10 -3 0 9 -21
11 -79 7 -50 -3 -81 -1 -86 5 -4 7 -16 6 -36 -4 -16 -9 -34 -13 -40 -10 -5 4
-33 9 -62 11 -29 2 -95 9 -147 14 -93 10 -119 11 -248 14 -50 1 -63 5 -68 18
-7 23 4 41 23 34 8 -3 139 -13 291 -22z m-1691 -122 c-2 -42 0 -48 15 -44 13
3 18 -5 23 -32 8 -42 25 -39 25 5 0 35 -30 33 295 15 138 -8 324 -18 414 -22
l164 -6 16 -39 16 -39 62 0 c59 0 63 1 60 22 -2 21 1 22 78 20 44 -2 92 -5
106 -8 19 -3 28 0 33 11 5 14 17 15 73 11 38 -3 191 -11 340 -18 150 -6 277
-14 282 -17 5 -4 12 -55 15 -114 l6 -107 -39 0 c-25 0 -41 -5 -45 -15 -3 -10
-19 -15 -47 -15 -60 0 -39 -13 26 -17 46 -2 55 0 56 15 0 14 2 14 9 -3 8 -18
9 -19 9 -1 1 12 6 16 16 13 8 -4 17 -3 19 2 3 4 27 5 53 3 26 -3 98 -6 158 -7
61 0 115 -4 122 -8 19 -12 27 13 25 84 -1 37 2 71 8 74 6 4 10 -18 10 -60 0
-37 8 -98 17 -136 10 -42 13 -73 7 -79 -5 -5 -98 -6 -217 -2 -115 4 -210 5
-212 2 -9 -14 13 -28 40 -28 72 2 100 -2 84 -12 -23 -13 -117 -14 -159 -1 -19
6 -49 11 -67 11 -35 0 -83 36 -83 63 0 20 -36 24 -250 31 -503 17 -1065 37
-1282 47 -211 10 -248 14 -248 27 0 9 -7 23 -15 32 -13 15 -13 23 1 75 14 55
14 61 -2 72 -9 6 -16 27 -17 47 -1 25 -6 36 -20 40 -15 4 -18 10 -12 28 4 13
9 37 11 53 14 88 24 100 21 27z m2152 -164 c1 29 19 28 52 -4 19 -18 42 -28
74 -32 l47 -5 -7 -56 c-7 -55 -27 -93 -42 -77 -5 5 -2 11 5 13 30 11 7 23 -43
23 -39 0 -57 -4 -61 -15 -9 -22 -41 3 -43 34 -3 44 -4 95 -1 121 l2 25 8 -25
c8 -24 8 -24 9 -2z m-1650 -375 c9 -16 13 -16 32 -5 18 12 23 12 30 0 5 -7 8
-20 8 -28 -3 -33 2 -35 78 -32 126 6 283 -7 283 -24 0 -7 -16 -20 -35 -28 -36
-15 -55 -47 -55 -91 0 -24 -2 -24 -92 -28 -85 -3 -6 -6 302 -11 l55 -1 3 -39
3 -38 -285 4 c-157 2 -289 7 -292 11 -4 4 0 7 8 7 17 0 28 20 28 51 0 10 4 19
10 19 6 0 6 9 1 23 -5 12 -6 47 -4 77 4 44 3 53 -7 43 -8 -8 -11 -32 -8 -72 4
-56 3 -59 -15 -49 -10 5 -29 7 -42 4 -43 -11 -44 -79 -2 -96 19 -8 18 -9 -10
-9 -38 -1 -35 -18 -33 177 1 68 4 130 7 138 7 19 20 18 32 -3z m737 -13 c19 0
23 -6 26 -37 2 -28 7 -37 18 -34 8 3 65 3 125 2 91 -2 116 -6 144 -23 32 -20
35 -21 65 -4 28 15 58 17 217 14 178 -3 184 -4 187 -24 2 -17 -2 -21 -28 -22
-17 0 -38 -6 -46 -13 -30 -25 -11 -27 49 -5 34 13 88 27 120 31 31 4 60 11 63
16 3 5 5 31 6 59 l0 50 91 0 c131 0 137 -3 137 -56 0 -42 1 -44 30 -44 26 0
48 -20 56 -50 0 -3 4 -14 9 -24 9 -22 -24 -56 -55 -56 -30 0 -70 46 -72 84 -4
46 -14 46 -27 1 -17 -62 12 -107 74 -117 16 -3 21 -12 23 -46 2 -28 8 -42 18
-42 9 0 14 -11 14 -30 0 -36 -68 -116 -116 -136 -30 -12 -252 -19 -240 -7 3 3
48 5 101 5 52 0 93 3 91 7 -9 14 -289 8 -294 -6 -5 -16 -23 -17 -19 -2 1 6 -4
14 -10 16 -7 3 -13 -2 -13 -11 0 -9 -4 -16 -10 -16 -5 0 -10 6 -10 14 0 11
-63 14 -377 14 l-378 1 -37 49 c-36 46 -37 51 -39 132 -1 47 -6 91 -11 98 -15
18 42 15 66 -3 11 -8 32 -15 48 -15 28 0 68 30 68 52 0 9 -3 9 -12 0 -20 -20
-64 -14 -92 15 -29 29 -28 56 5 85 24 21 9 32 -30 23 -35 -8 -44 5 -31 40 9
24 14 27 41 21 18 -3 42 -6 55 -6z m2610 -860 l121 0 26 -62 c32 -80 55 -159
73 -262 18 -103 18 -106 -5 -106 -27 0 -43 -24 -35 -54 5 -23 3 -26 -18 -26
-30 0 -48 -17 -48 -46 0 -36 11 -54 31 -54 22 0 28 -45 7 -52 -10 -4 -10 -10
-1 -31 11 -23 9 -30 -12 -54 l-24 -28 -1 47 c0 52 -16 64 -65 52 -21 -5 -27
-3 -32 15 -3 11 -13 21 -23 21 -10 0 -25 3 -34 6 -12 4 -16 0 -16 -15 0 -14
-6 -21 -19 -21 -21 0 -37 34 -44 96 l-5 40 97 13 c94 12 132 27 155 64 8 12 5
22 -13 41 -21 23 -61 32 -61 14 0 -4 -4 -8 -10 -8 -5 0 -7 6 -4 14 6 15 -10
20 -88 31 -46 7 -64 26 -35 39 6 3 3 4 -8 2 -11 -3 -36 -8 -55 -12 l-35 -6 19
21 c23 25 17 26 -30 6 -19 -8 -56 -14 -82 -14 -26 -1 -60 -2 -77 -4 -16 -2
-36 -5 -43 -5 -7 -1 -11 -6 -7 -11 5 -10 -86 -14 -210 -11 -71 2 -87 9 -24 12
l44 1 -50 6 c-27 4 -55 3 -60 -1 -6 -4 -11 1 -12 13 -1 15 5 19 30 20 50 1
151 10 155 14 12 12 -16 25 -54 25 -48 0 -66 18 -44 45 10 12 8 16 -10 23 -19
7 -20 10 -6 21 11 9 13 19 6 37 -8 20 -5 27 16 41 l26 17 -22 18 c-12 10 -32
19 -44 19 -11 1 10 5 49 10 38 4 71 7 72 6 1 -2 3 -55 4 -120 3 -127 -1 -121
64 -119 83 2 212 3 229 3 12 -1 16 -6 13 -16 -4 -8 -2 -17 3 -20 6 -4 10 -2
10 4 0 5 10 11 22 13 13 2 24 11 26 21 3 15 -1 18 -16 13 -16 -6 -21 0 -31 38
-6 25 -11 58 -11 75 0 61 -2 62 -124 62 -61 0 -119 0 -128 0 -10 0 -18 6 -18
13 0 19 22 36 45 35 16 -1 17 -2 3 -6 -10 -2 -18 -11 -18 -19 0 -12 4 -13 21
-3 13 7 38 8 63 5 41 -7 42 7 1 17 -18 4 -17 5 3 6 13 0 32 -4 43 -10 16 -8
25 -7 39 6 10 9 24 14 30 10 6 -4 17 -1 25 5 12 10 20 9 40 -4 31 -20 65 -21
65 -1 0 8 -7 15 -15 15 -8 0 -15 5 -15 11 0 7 9 9 23 5 12 -3 76 -6 143 -6z
m-1048 -134 c2 -84 6 -112 18 -121 11 -8 13 -19 8 -39 -6 -27 -8 -28 -52 -21
-42 6 -45 5 -32 -10 18 -22 7 -29 -69 -44 -35 -7 -75 -19 -88 -28 -13 -9 -26
-14 -28 -11 -3 2 -30 50 -60 106 -48 89 -54 105 -43 120 7 10 40 51 73 91 l60
72 105 -3 105 -3 3 -109z m698 24 l102 0 4 -41 c2 -23 -1 -43 -7 -44 -5 -2
-63 -5 -127 -8 l-118 -4 0 54 c0 52 1 55 23 49 12 -3 68 -6 123 -6z m-1025
-182 c64 -114 66 -110 -38 -106 l-88 3 -3 38 c-3 31 4 46 35 87 21 27 42 48
47 47 5 -2 26 -33 47 -69z m-371 -89 c-9 -16 -7 -18 20 -16 16 1 30 5 30 8 0
3 11 4 25 1 14 -2 22 -8 19 -13 -3 -5 0 -9 5 -9 6 0 11 5 11 10 0 6 5 10 11
10 5 0 7 -4 4 -10 -4 -6 21 -11 67 -12 40 -1 3 -5 -82 -8 -152 -5 -155 -5
-167 -30 -12 -24 -8 -44 5 -24 14 21 49 22 66 3 17 -20 76 -27 76 -9 0 6 -16
10 -35 10 -32 0 -40 6 -32 28 1 4 5 6 9 5 4 -2 65 -5 135 -8 197 -8 276 -15
290 -27 24 -20 13 -25 -34 -17 -62 10 -323 17 -323 8 0 -11 55 -17 195 -24 72
-3 149 -8 172 -10 109 -11 228 -27 233 -32 3 -3 -105 -3 -240 0 -146 3 -225 2
-195 -3 28 -4 77 -9 110 -10 33 -1 52 -4 42 -7 -11 -3 -119 1 -240 7 -122 7
-232 13 -244 12 -13 0 -23 6 -23 14 0 8 -16 16 -40 20 -46 8 -48 26 -4 35 16
4 21 7 10 8 -15 1 -16 4 -6 16 7 8 16 13 20 10 5 -3 18 9 30 25 15 21 29 30
44 28 16 -2 21 2 19 19 -2 16 2 21 12 17 11 -5 12 -11 5 -25z m2215 -359 c61
-5 225 -16 365 -25 140 -9 262 -18 270 -20 9 -3 16 -13 16 -22 1 -10 29 -128
62 -263 34 -135 68 -279 77 -320 8 -41 23 -106 33 -145 11 -38 22 -82 26 -97
l6 -27 -63 6 c-70 6 -102 -10 -42 -21 51 -10 34 -24 -22 -19 -66 6 -209 24
-263 33 l-45 7 50 2 c45 1 48 2 30 15 -11 7 -32 14 -47 14 -14 0 -52 3 -83 7
-48 6 -59 4 -70 -11 -12 -17 -22 -17 -155 -6 -122 10 -146 14 -162 32 -10 11
-17 20 -16 20 2 0 21 -6 43 -14 40 -14 65 -12 65 6 0 5 -15 9 -32 7 -18 -1
-40 1 -49 5 -9 4 -36 0 -60 -8 -24 -9 -58 -16 -74 -16 -26 0 -33 5 -42 33 -7
17 -15 50 -18 72 l-6 40 20 -40 20 -40 -6 40 c-3 22 -18 74 -33 115 -15 41
-42 116 -60 165 -17 50 -36 101 -41 115 -7 20 -4 36 15 75 35 74 55 139 68
221 l12 74 50 0 c28 0 101 -4 161 -10z m-250 -91 c-8 -41 -23 -97 -33 -125
-18 -50 -19 -51 -39 -34 -15 12 -18 21 -11 33 11 20 3 37 -18 37 -15 0 -19 25
-5 34 5 3 7 15 4 25 -4 15 6 27 45 51 28 17 53 38 56 47 15 37 15 1 1 -68z
m1116 -20 c12 -33 28 -63 36 -66 7 -3 13 -10 13 -15 0 -6 -6 -5 -15 2 -21 17
-20 3 9 -116 22 -92 36 -150 117 -499 17 -71 41 -175 54 -230 13 -55 27 -120
29 -145 l6 -45 -11 40 c-31 119 -209 865 -251 1048 -10 46 -17 59 -35 63 -26
7 -21 24 7 24 14 0 25 -16 41 -61z m-2074 41 c14 0 21 -4 18 -10 -4 -6 10 -10
34 -10 23 0 41 4 41 8 0 11 51 14 65 2 12 -10 8 -80 -5 -80 -4 0 -12 15 -17
33 -9 26 -10 11 -9 -75 1 -68 5 -108 11 -108 7 0 9 15 7 35 -3 25 0 35 10 35
9 0 13 -12 13 -37 0 -30 -5 -41 -24 -50 -31 -17 -41 -16 -41 4 0 14 -13 15
-126 10 -105 -5 -126 -3 -131 9 -3 8 -2 18 2 22 4 4 10 1 12 -5 3 -8 22 -13
48 -13 40 0 44 2 47 27 2 14 9 29 17 31 10 3 12 -3 9 -27 -5 -35 0 -36 86 -25
l46 7 0 83 0 84 -57 2 c-66 2 -77 2 -153 -3 -44 -3 -55 -1 -55 11 0 11 11 14
45 13 25 -2 61 1 80 6 33 9 32 10 -20 10 -79 -1 -82 0 -74 12 4 7 23 9 52 5
25 -3 56 -6 69 -6z m3509 -328 c22 -18 54 -66 54 -84 0 -7 -33 -9 -102 -4
l-103 6 -49 -45 c-27 -25 -50 -45 -52 -45 -14 0 -33 14 -28 21 3 5 10 7 15 3
5 -3 23 6 39 20 17 14 26 28 20 31 -31 19 25 88 91 114 31 12 87 4 115 -17z
m-608 -58 c20 -6 22 -12 22 -70 0 -60 -2 -64 -22 -64 -22 0 -138 102 -138 121
0 14 98 23 138 13z m-156 -66 c21 3 52 -35 53 -66 0 -22 4 -26 22 -24 17 2 21
-1 17 -12 -4 -10 7 -23 30 -38 20 -13 36 -26 36 -30 0 -19 -24 -4 -81 50 l-62
58 -65 -33 c-36 -18 -67 -33 -69 -33 -2 0 -3 11 -3 25 0 36 27 84 64 118 l31
28 6 -23 c3 -13 12 -22 21 -20z m-2192 -69 c0 -11 -7 -19 -16 -19 -18 0 -14
-33 12 -84 8 -16 14 -30 14 -31 0 -1 -28 -10 -62 -19 -35 -9 -86 -24 -115 -33
-70 -21 -99 -13 -107 33 -8 41 3 59 42 69 35 8 181 83 199 101 18 17 33 10 33
-17z m511 -335 c10 -9 28 -16 41 -16 53 2 145 14 169 23 29 11 209 -4 237 -20
26 -15 -23 -24 -92 -17 -55 6 -99 -4 -85 -18 3 -3 72 -13 155 -21 82 -8 190
-20 239 -26 121 -15 190 -16 190 -4 0 6 -8 10 -17 9 -9 0 -14 4 -11 9 4 6 -6
8 -25 4 -25 -5 -30 -3 -25 8 4 11 22 15 64 15 56 0 59 -1 59 -25 0 -26 6 -29
90 -43 32 -5 46 -13 48 -26 3 -13 -1 -17 -15 -12 -10 3 -112 17 -228 31 -115
14 -217 28 -225 30 -14 4 -207 22 -335 31 -128 8 -281 27 -297 36 -27 13 -21
26 10 22 15 -2 21 -1 14 2 -14 6 -7 24 10 24 6 0 19 -7 29 -16z m2409 -787 c0
-20 -10 -26 -67 -45 -38 -11 -104 -28 -148 -37 -44 -9 -102 -25 -130 -35 -50
-19 -123 -40 -137 -40 -5 0 -8 8 -8 18 0 10 -5 23 -12 30 -13 13 -16 12 92 42
175 50 267 72 299 72 19 0 44 4 55 8 38 16 56 12 56 -13z"/>
<path d="M3418 1843 c-2 -194 -2 -194 -16 -225 -14 -34 -8 -52 24 -66 27 -13
31 -38 10 -61 -8 -9 -17 -45 -19 -81 -3 -36 -8 -77 -12 -91 -4 -15 -2 -29 3
-33 5 -3 23 29 40 72 l31 77 -2 225 c-2 194 -5 232 -22 278 -10 28 -23 52 -27
52 -4 0 -9 -66 -10 -147z"/>
<path d="M2216 772 c5 -5 74 -21 154 -36 790 -144 790 -144 797 -133 9 15 -14
23 -100 36 -45 6 -131 20 -192 31 -272 50 -626 110 -646 110 -14 0 -19 -4 -13
-8z"/>
<path d="M7239 5377 c-1 -798 0 -1463 1 -1477 1 -14 6 -29 11 -34 12 -13 12
-39 -1 -31 -5 3 -10 3 -10 -2 0 -4 179 -10 398 -11 218 -2 402 -7 407 -12 6
-4 39 -10 75 -14 116 -11 497 -19 554 -12 l56 7 0 425 c-1 260 -5 424 -11 424
-5 0 -9 7 -9 15 0 8 5 15 10 15 6 0 10 18 10 40 0 22 -4 40 -10 40 -5 0 -10 7
-10 15 0 8 5 15 10 15 6 0 10 16 10 35 0 19 -4 35 -10 35 -5 0 -10 7 -10 15 0
8 5 15 10 15 15 0 12 77 -2 84 -10 5 -10 7 0 12 6 3 12 22 12 43 0 20 -6 43
-12 50 -10 11 -10 14 0 18 7 3 12 21 12 43 0 21 -6 41 -12 44 -10 5 -10 7 0
12 15 7 16 76 1 91 -8 8 -8 13 0 17 15 10 14 83 -1 89 -9 4 -10 8 -3 14 15 11
18 73 4 89 -8 10 -8 14 0 14 16 0 14 87 -1 93 -10 4 -10 6 0 6 15 1 17 91 2
91 -5 0 -10 5 -10 11 0 5 5 7 10 4 6 -4 10 13 10 44 0 30 -5 51 -12 54 -10 4
-10 6 0 6 7 1 12 15 12 35 0 26 -5 36 -20 41 -14 5 -20 15 -20 37 0 21 6 31
20 35 22 6 28 48 8 56 -10 4 -10 6 0 6 7 1 12 17 12 45 0 26 -5 46 -12 49 -10
4 -10 6 0 6 9 1 12 28 12 100 0 70 -4 101 -12 104 -10 4 -10 6 -1 6 10 1 13
58 13 250 l-1 250 -744 0 -745 1 -1 -1453z m873 1346 c9 -10 19 -33 23 -52 6
-29 5 -33 -9 -28 -17 7 -22 -12 -7 -28 5 -6 12 -25 16 -44 6 -29 5 -33 -9 -28
-20 8 -20 -3 -1 -39 20 -38 20 -68 0 -60 -17 6 -21 -19 -5 -29 6 -3 10 -17 10
-30 0 -13 5 -27 10 -30 20 -12 10 -26 -10 -15 -24 13 -25 4 -6 -36 8 -16 17
-40 21 -52 6 -22 5 -23 -14 -13 -25 14 -26 5 -7 -35 8 -16 17 -39 20 -51 6
-18 4 -20 -14 -16 -24 6 -25 1 -6 -35 30 -60 29 -67 -12 -66 -21 0 -43 3 -49
7 -21 13 -21 47 -1 72 17 22 18 26 4 31 -23 9 -21 70 2 79 16 6 16 7 -2 20
-23 17 -24 64 -3 80 14 10 14 13 -4 28 -23 20 -24 35 -3 66 10 14 13 26 7 30
-20 13 -23 44 -7 69 9 14 12 27 7 31 -20 13 -23 44 -8 68 14 21 14 26 0 45
-19 29 -19 34 5 58 25 25 33 25 52 3z m-614 -61 c7 -5 16 -23 21 -40 8 -26 7
-32 -6 -32 -11 0 -14 -6 -9 -22 18 -64 19 -78 2 -78 -19 0 -20 -4 -5 -32 6
-11 15 -33 19 -48 7 -25 6 -27 -13 -22 -21 5 -21 4 -6 -19 9 -13 19 -37 23
-53 6 -23 4 -27 -8 -23 -22 9 -30 -12 -13 -31 9 -9 19 -29 22 -45 6 -22 4 -26
-9 -21 -11 4 -16 0 -16 -13 0 -10 4 -23 8 -29 5 -5 14 -22 20 -38 11 -25 11
-28 -4 -22 -29 11 -34 -4 -12 -45 24 -47 15 -61 -37 -57 -35 3 -45 35 -24 75
9 16 10 27 3 31 -20 13 -25 45 -10 66 12 19 12 25 0 41 -18 24 -18 40 1 59 14
14 14 18 -2 42 -16 25 -16 29 -1 55 14 24 14 30 2 40 -18 15 -18 48 1 69 14
15 14 18 0 30 -18 15 -19 34 -3 60 10 16 10 24 0 40 -15 25 -15 43 0 58 14 14
37 15 56 4z m100 -92 c12 -12 22 -27 22 -35 0 -7 3 -20 6 -28 4 -12 0 -14 -15
-10 -24 6 -28 -9 -6 -27 8 -7 15 -21 15 -32 0 -34 42 -98 64 -99 19 -2 19 -2
-1 -6 -13 -2 -23 -8 -23 -12 0 -4 -12 -13 -26 -20 -37 -16 -68 10 -61 53 3 23
-1 35 -19 49 -28 22 -31 49 -8 72 15 15 15 18 -3 38 -22 24 -20 45 5 65 21 16
24 15 50 -8z m1044 -102 c9 -7 19 -30 23 -51 6 -36 5 -38 -14 -32 -25 8 -26 2
-6 -29 9 -13 17 -38 20 -55 3 -27 1 -30 -11 -20 -11 9 -14 8 -14 -3 0 -8 4
-18 9 -23 14 -15 31 -85 21 -85 -5 0 -11 4 -14 8 -3 5 -19 7 -35 4 -25 -3 -33
0 -42 21 -9 20 -8 30 6 50 16 25 16 27 -3 47 -20 22 -39 13 -29 -13 3 -9 -7
-13 -31 -12 -31 0 -38 4 -46 28 -18 51 26 86 65 51 19 -17 21 -17 47 9 14 15
21 27 15 27 -7 0 -17 9 -23 21 -9 16 -8 26 5 45 17 27 33 30 57 12z m-308
-244 c3 -9 6 -24 6 -34 0 -22 55 -64 73 -56 7 3 19 11 28 18 13 9 23 8 45 -3
24 -11 29 -20 29 -50 0 -35 -1 -36 -35 -33 -19 1 -38 2 -43 3 -4 1 -13 13 -19
29 l-11 27 -6 -30 c-5 -25 -12 -31 -38 -33 -26 -3 -34 2 -46 24 -13 25 -13 31
0 50 13 21 13 22 -7 17 -40 -11 -77 46 -48 75 17 17 65 15 72 -4z m-25 -1753
c22 -6 23 -11 23 -76 0 -56 -3 -71 -16 -73 -13 -3 -16 -19 -17 -95 0 -51 -4
-114 -9 -142 -6 -38 -8 -18 -9 87 -1 125 -3 138 -20 148 -17 8 -19 19 -17 73
3 87 9 94 65 78z m311 -211 c0 -107 4 -170 10 -170 6 0 10 -33 10 -80 l0 -80
-35 0 -35 0 0 80 c0 47 4 80 10 80 6 0 10 28 10 63 0 113 13 277 22 277 4 0 8
-76 8 -170z"/>
<path d="M1048 5103 c6 -2 12 -12 12 -22 0 -9 6 -25 13 -35 12 -16 10 -22 -16
-47 -36 -37 -59 -49 -91 -49 -13 0 -31 -3 -40 -6 -14 -6 -14 -9 1 -34 l16 -28
44 15 c29 10 56 30 81 60 l37 45 101 -6 c56 -3 109 -9 118 -12 9 -3 31 -37 49
-75 25 -54 36 -69 51 -67 11 2 21 9 24 16 2 7 0 12 -5 11 -20 -4 -27 2 -13 12
11 8 12 12 3 16 -7 2 -13 11 -13 19 0 8 -5 24 -12 37 -27 52 -27 55 -7 73 18
16 18 18 3 36 -22 23 -41 23 -49 -1 -4 -15 -17 -18 -78 -20 -83 -2 -135 11
-157 38 -8 10 -31 21 -50 24 -19 3 -29 3 -22 0z"/>
<path d="M1860 4890 c0 -6 -11 -10 -24 -10 -31 0 -36 -8 -25 -38 11 -30 45
-26 41 5 -5 36 14 35 42 -2 22 -28 34 -35 62 -35 38 0 46 15 12 23 -50 14 -4
14 152 1 319 -25 357 -27 363 -17 8 12 -17 15 -338 43 -132 11 -250 25 -262
30 -15 6 -23 6 -23 0z"/>
<path d="M3735 4813 c-59 -13 -115 -36 -115 -47 0 -7 -34 -23 -75 -36 -71 -22
-74 -25 -69 -49 11 -49 13 -51 54 -51 23 0 72 -5 111 -11 59 -10 72 -10 87 3
9 9 27 19 40 22 12 4 22 14 22 22 0 19 41 18 87 -1 44 -19 60 -14 66 17 4 22
4 22 6 1 1 -19 9 -22 59 -28 31 -3 64 -9 71 -14 29 -15 51 -57 57 -106 4 -27
12 -56 17 -63 13 -17 9 -98 -5 -122 -15 -24 -1 -150 17 -150 7 0 29 -26 49
-57 49 -80 52 -83 94 -83 48 0 62 -14 62 -64 0 -23 5 -48 10 -56 8 -12 10 -11
10 8 0 31 28 28 41 -5 13 -34 49 -74 60 -67 5 3 9 18 9 34 0 15 5 30 12 32 6
2 8 10 4 17 -5 7 -14 10 -22 7 -8 -3 -14 -1 -14 4 0 6 -13 10 -29 10 -35 0
-47 24 -31 64 26 69 3 136 -47 136 -19 0 -33 17 -33 41 0 6 25 9 58 7 42 -2
57 -7 58 -18 1 -8 2 -21 3 -27 1 -8 17 -13 45 -13 73 0 106 -10 106 -32 0 -14
-5 -18 -15 -14 -8 3 -21 -2 -30 -10 -29 -30 -37 -56 -30 -101 l7 -45 43 5 c23
4 45 3 49 0 3 -3 38 -5 77 -4 43 1 76 -2 85 -10 11 -9 14 -8 14 10 0 25 6 25
40 6 29 -17 85 -21 60 -5 -9 6 -10 10 -3 10 6 0 15 -5 18 -10 10 -16 27 0 22
21 -3 10 -1 22 4 25 5 3 6 10 3 16 -5 7 -1 9 9 5 11 -4 17 -1 17 7 0 9 7 12
20 9 14 -4 20 0 20 11 0 9 6 16 13 16 6 0 12 11 12 23 0 19 -4 23 -20 20 -12
-3 -16 -1 -10 4 6 4 25 38 43 74 32 63 35 67 75 72 22 3 49 1 60 -4 12 -7 22
-7 31 0 27 22 -1 354 -31 382 -5 3 -134 19 -288 34 -154 14 -331 32 -393 39
-80 8 -116 9 -122 1 -17 -21 7 -35 70 -40 63 -5 156 -16 310 -35 97 -12 260
-24 281 -21 20 2 33 -50 16 -61 -7 -5 -3 -8 10 -8 15 0 21 5 17 14 -4 9 5 20
24 30 27 14 31 14 36 0 3 -9 6 -22 6 -30 0 -8 9 -34 20 -57 17 -34 20 -58 18
-124 -3 -77 -4 -83 -24 -83 -18 0 -24 9 -32 48 -9 44 -10 45 -11 12 -2 -47
-13 -62 -42 -56 -13 3 -109 10 -214 16 -378 22 -529 38 -542 57 -18 24 -17
154 2 189 8 16 15 45 15 64 0 19 4 50 9 68 l10 32 -45 0 -45 0 21 -30 c24 -33
22 -35 -15 -18 -19 9 -28 9 -37 0 -9 -9 -7 -12 8 -12 54 -1 80 -69 44 -119
-25 -36 -28 -37 -78 -14 -20 9 -40 15 -44 15 -4 -1 -12 15 -19 36 -13 45 2
116 27 126 24 9 6 26 -29 26 -19 0 -41 9 -56 24 -22 19 -44 25 -136 35 -110
11 -192 13 -230 4z"/>
<path d="M1787 4609 c-105 -132 -109 -139 -70 -139 29 0 75 41 186 169 58 66
60 81 10 80 -36 0 -43 -6 -126 -110z"/>
<path d="M2171 4677 c-21 -27 11 -50 75 -54 32 -2 160 -13 284 -23 124 -11
313 -26 420 -35 107 -8 272 -22 365 -30 219 -19 215 -19 215 5 0 29 -28 37
-170 50 -69 6 -199 18 -290 26 -217 19 -867 74 -879 74 -5 0 -14 -6 -20 -13z"/>
<path d="M3947 4500 c-35 -41 -34 -78 4 -134 33 -50 58 -58 96 -31 41 29 53
137 19 170 -9 9 -34 19 -54 22 -34 5 -42 1 -65 -27z"/>
<path d="M6543 4465 c-32 -14 -33 -15 -33 -78 0 -63 0 -64 31 -73 22 -6 38
-22 56 -54 28 -52 57 -80 84 -80 23 0 23 -6 3 61 -10 32 -17 92 -17 147 l-1
92 -45 0 c-25 -1 -61 -7 -78 -15z"/>
<path d="M6702 4321 c-2 -70 0 -80 14 -74 13 5 15 -1 12 -33 l-3 -39 75 -8
c109 -11 121 -8 134 33 9 28 18 36 48 45 l37 10 -22 35 c-12 19 -28 40 -37 47
-36 28 -110 24 -110 -6 0 -23 -28 -37 -88 -46 l-52 -7 1 34 c0 30 1 31 9 11 5
-13 11 -23 13 -23 2 0 3 10 1 23 -1 12 -3 27 -3 33 -1 5 -7 18 -14 28 -12 16
-14 7 -15 -63z"/>
<path d="M5737 4313 c2 -43 0 -52 -6 -33 -5 14 -9 37 -10 53 -1 32 -20 37 -23
5 -4 -64 17 -102 52 -95 8 2 60 -2 115 -8 55 -7 103 -10 108 -8 9 5 9 95 -1
109 -4 6 -53 14 -110 18 -57 4 -108 9 -115 12 -9 3 -11 -12 -10 -53z"/>
<path d="M5500 3965 c-16 -19 -3 -40 15 -25 9 7 14 7 17 1 1 -6 28 -15 58 -21
48 -9 57 -8 68 7 9 12 15 14 20 7 4 -7 23 -12 42 -13 39 -1 247 -18 281 -23
13 -2 26 4 33 15 16 26 -7 37 -78 37 -53 0 -239 12 -393 24 -36 3 -55 0 -63
-9z"/>
<path d="M5123 3902 c-26 -4 -26 -3 -13 -37 6 -15 15 -59 21 -98 5 -40 15 -87
21 -105 5 -19 11 -80 13 -135 4 -139 16 -246 28 -254 6 -3 29 -6 53 -5 30 0
48 -6 60 -20 16 -16 16 -21 4 -28 -10 -7 -11 -10 -2 -10 6 0 12 -11 12 -25 0
-44 -57 -55 -87 -16 -17 22 -16 28 10 36 19 6 20 8 4 12 -22 6 -47 -13 -47
-36 0 -51 74 -88 111 -55 28 26 43 83 30 117 -13 33 -64 58 -109 52 -20 -3
-32 1 -36 11 -3 8 -6 123 -7 257 -1 217 -3 246 -21 280 -10 21 -16 42 -13 47
7 12 -5 17 -32 12z"/>
<path d="M6355 3844 c-23 -12 -38 -27 -36 -35 2 -8 5 -61 8 -119 7 -159 24
-161 21 -2 -2 103 0 132 10 132 7 0 26 7 42 15 28 15 30 14 30 -4 0 -12 -11
-25 -27 -33 l-28 -13 -3 -149 c-3 -181 -3 -180 -105 -176 -113 4 -204 7 -307
9 l-95 1 -60 56 c-33 31 -70 60 -83 65 -13 5 -79 9 -147 9 l-123 0 -34 -35
c-18 -19 -38 -54 -44 -77 -15 -58 -18 -222 -4 -248 7 -14 8 -20 0 -20 -7 0 -9
-32 -6 -95 2 -56 0 -95 -6 -95 -5 0 -2 -7 6 -16 9 -8 17 -23 18 -32 1 -9 5 46
8 123 l5 140 85 3 c120 3 124 5 159 67 26 46 31 65 31 121 l0 66 53 -7 c31 -4
61 -15 74 -28 27 -24 139 -36 362 -37 135 0 143 -1 138 -19 -4 -16 3 -20 41
-25 24 -3 66 -6 91 -6 53 1 184 34 189 48 2 6 14 23 27 38 13 16 30 42 37 58
10 25 13 26 18 11 5 -14 17 -19 48 -20 31 -1 49 -8 71 -29 54 -51 125 -226 92
-226 -6 0 -11 8 -11 17 0 33 -19 -2 -25 -47 -5 -32 -4 -41 4 -30 8 12 12 12
29 -3 28 -25 79 -13 98 24 8 16 19 29 25 29 7 0 8 12 4 33 -3 17 -3 28 2 22 4
-5 17 -15 27 -21 11 -5 29 -35 40 -66 24 -64 51 -98 77 -98 10 0 24 -6 32 -14
11 -11 17 -12 26 -3 14 14 15 -40 1 -78 -7 -17 -7 -32 0 -43 6 -11 9 -12 10
-4 0 7 5 10 11 6 7 -4 9 -22 6 -45 -6 -47 9 -59 75 -59 l44 0 34 -71 c19 -38
39 -74 45 -78 5 -5 25 -2 43 5 41 18 41 37 -2 129 l-33 70 35 42 34 43 -72
137 c-40 76 -114 201 -166 278 -134 201 -114 184 -171 137 -26 -22 -77 -60
-112 -84 -36 -25 -67 -51 -69 -58 -3 -8 0 -10 7 -6 7 4 18 2 26 -4 12 -10 16
-9 21 4 5 12 11 10 31 -15 26 -31 25 -51 -2 -29 -8 7 -26 10 -40 8 -14 -3 -28
-1 -31 3 -3 5 -18 9 -33 9 -41 0 -56 22 -31 45 11 10 20 15 20 11 0 -23 212
126 231 162 11 19 10 25 -4 39 -15 15 -21 12 -80 -51 -57 -61 -67 -67 -85 -57
-11 6 -58 11 -104 11 -107 0 -116 9 -119 115 -3 76 -14 91 -34 47 -11 -25 -25
-29 -25 -7 0 9 -12 34 -27 56 -26 39 -73 68 -123 75 -146 20 -154 20 -195 -2z"/>
<path d="M4260 3649 c0 -6 9 -13 20 -16 11 -3 20 -10 20 -15 0 -5 -4 -7 -9 -4
-14 9 -41 -5 -41 -21 0 -12 -17 -14 -99 -11 -95 2 -100 2 -120 -22 -37 -45
-72 -128 -69 -162 l3 -33 105 2 c152 3 262 11 270 20 16 19 30 96 30 167 0 69
-2 76 -20 76 -11 0 -20 7 -20 15 0 10 -11 15 -35 15 -19 0 -35 -5 -35 -11z"/>
<path d="M6246 3341 c-9 -10 -14 -25 -11 -33 3 -8 0 -15 -7 -16 -7 0 -26 -4
-41 -9 l-29 -9 64 -49 63 -50 158 -3 c165 -4 194 -1 180 20 -4 7 -17 40 -28
73 l-20 60 -145 3 c-114 2 -147 6 -156 17 -10 13 -13 12 -28 -4z"/>
<path d="M5577 3203 c-27 -49 -15 -111 26 -128 25 -10 35 -10 60 4 49 26 65
47 69 88 l3 38 -77 3 c-42 2 -78 -1 -81 -5z"/>
<path d="M5899 2401 c-84 -27 -90 -54 -17 -76 28 -8 56 -15 62 -15 5 0 17 -6
25 -13 21 -18 91 -37 127 -36 23 1 20 3 -16 11 -25 5 -52 16 -60 23 -8 7 -48
23 -87 36 -40 13 -73 27 -73 30 0 4 10 9 23 13 67 18 143 -5 221 -66 57 -44
76 -51 137 -45 44 3 44 4 -9 5 -45 2 -58 7 -88 36 -70 68 -188 115 -245 97z"/>
</g>
</svg>
