<svg width="800" height="600" xmlns="http://www.w3.org/2000/svg">
 <!-- Created with Method Draw - http://github.com/duopixel/Method-Draw/ -->
 <g>
  <title>Layer 1</title>
 </g>
 <g>
  <title>background</title>
  <rect fill="#fff" id="canvas_background" height="602" width="802" y="-1" x="-1"/>
  <g display="none" overflow="visible" y="0" x="0" height="100%" width="100%" id="canvasGrid">
   <rect fill="url(#gridpattern)" stroke-width="0" y="0" x="0" height="100%" width="100%"/>
  </g>
  <path d="m108.5,341.45313c1,3 8.99014,8.73932 32,8c37.1964,-1.19513 87.62111,-19.51328 123,-54c30.64948,-29.87656 50.18811,-70.77547 37,-100c-4.65363,-10.31232 -29.38531,-16.03288 -56,-6c-41.56335,15.66805 -85.1785,52.99118 -123,140c-25.52615,58.72321 -27.50011,115.32529 -4,134c18.82225,14.95737 56.98682,1.15622 106,-46c42.81516,-41.19299 78.21609,-88.64557 96,-135c14.42148,-37.59016 15.82684,-65.7612 12,-75c-0.5412,-1.30656 -6.74164,4.09599 -18,34c-16.61984,44.14499 -35.22836,96.30865 -42,151c-2.70609,21.85583 1.07672,27.78696 7,23c22.87473,-18.48639 39.73721,-58.84921 69,-101c32.62097,-46.98801 64.99951,-77.53412 77,-96c1.21848,-1.87492 4.02023,-0.9026 2,20c-4.01865,41.57944 -16.28577,86.05939 -35,130c-7.00946,16.45804 -9.13272,18.99115 -9,18c1.5134,-11.30087 14.35126,-53.22327 53,-104c27.8671,-36.61182 67.16937,-63.34892 89,-64c9.21545,-0.27484 15.99811,18.86983 18,65c1.43073,32.96896 -4.94171,60.71829 -9,76c-1.30878,4.92819 -0.77924,4.10297 1,0c11.45514,-26.41553 27.43402,-69.11111 60,-112c25.67096,-33.80829 43.39478,-44.73276 47,-43c5.77118,2.77376 7,35 7,76c0,43 1.79987,82.39047 -6,114c-3.25848,13.20538 -4,15 -4,13l0,-1l0,-2" id="svg_5" stroke-width="1.5" stroke="#000" fill="none"/>
  <path d="m351.5,162.45313c1,-1 5,-7 15,-18l13,-20l5,-8l0,-1" id="svg_11" stroke-width="1.5" stroke="#000" fill="none"/>
 </g>
</svg>