<?xml version="1.0" standalone="no"?>
<!DOCTYPE svg PUBLIC "-//W3C//DTD SVG 20010904//EN"
 "http://www.w3.org/TR/2001/REC-SVG-20010904/DTD/svg10.dtd">
<svg version="1.0" xmlns="http://www.w3.org/2000/svg"
 width="495.000000pt" height="400.000000pt" viewBox="0 0 495.000000 400.000000"
 preserveAspectRatio="xMidYMid meet">

<g transform="translate(0.000000,400.000000) scale(0.100000,-0.100000)"
fill="#000000" stroke="none">
<path d="M1715 2850 c-32 -13 -72 -61 -97 -115 -18 -40 -23 -73 -26 -165 l-4
-115 -79 -74 c-44 -40 -86 -86 -94 -102 -17 -32 -20 -79 -5 -79 6 0 10 10 10
21 0 33 36 83 102 144 34 30 64 55 67 55 4 0 14 -36 23 -80 17 -81 64 -190 85
-197 6 -2 14 13 18 39 13 77 45 136 103 189 41 38 61 49 81 47 26 -3 26 -4 25
-88 0 -47 -3 -130 -5 -185 -4 -110 9 -165 41 -165 27 0 50 35 110 165 l54 117
14 -42 c17 -51 70 -105 110 -113 44 -9 93 8 141 49 23 20 43 35 45 33 2 -2 13
-23 24 -45 59 -117 157 -124 233 -19 18 25 34 45 35 45 2 0 12 -19 22 -42 38
-84 104 -118 154 -78 15 11 53 69 85 127 l57 107 14 -45 c69 -213 289 -173
357 65 13 43 16 79 12 128 -5 53 -3 70 8 74 17 7 109 123 102 130 -2 3 -28
-22 -57 -56 -28 -33 -55 -60 -59 -60 -4 0 -15 16 -24 35 -42 88 -175 103 -220
25 -10 -15 -17 -40 -17 -55 0 -33 49 -85 82 -86 46 -2 84 3 117 17 53 22 54
21 49 -64 -7 -130 -75 -243 -154 -258 -80 -15 -128 57 -130 196 -2 108 0 102
-26 98 -16 -2 -27 -17 -43 -58 -42 -108 -155 -290 -180 -290 -22 0 -54 49 -74
115 l-20 63 35 80 c102 237 113 500 22 510 -105 12 -179 -300 -133 -563 l15
-87 -36 -48 c-67 -88 -118 -93 -152 -13 -47 112 -48 122 -8 194 85 154 116
328 79 434 -23 64 -59 88 -100 65 -37 -21 -81 -104 -98 -187 -20 -91 -19 -244
1 -344 l17 -82 -34 -28 c-45 -37 -83 -53 -113 -45 -30 7 -73 90 -82 159 -6 44
-5 47 15 47 31 0 97 36 115 62 9 12 16 39 16 58 0 51 -33 80 -89 80 -37 0 -49
-6 -76 -34 -35 -38 -55 -99 -55 -169 0 -35 -16 -78 -69 -190 -38 -79 -73 -147
-79 -151 -19 -12 -21 52 -5 214 17 182 13 213 -32 230 -55 21 -158 -58 -206
-159 l-24 -52 -7 33 c-4 18 -14 71 -23 118 l-15 86 53 56 c97 102 138 211 106
281 -18 39 -62 55 -104 37z m77 -37 c45 -41 8 -156 -82 -253 l-51 -55 4 110
c4 110 15 152 55 198 19 22 50 22 74 0z m1086 -38 c16 -47 10 -148 -13 -240
-20 -78 -76 -225 -86 -225 -14 0 -21 166 -9 267 12 111 34 209 52 230 19 23
42 10 56 -32z m-321 27 c24 -15 43 -82 43 -148 0 -87 -22 -170 -72 -272 -36
-73 -43 -82 -52 -65 -16 27 -14 356 3 413 19 67 47 92 78 72z m799 -236 c45
-45 44 -73 -1 -92 -106 -44 -202 30 -130 101 37 38 88 34 131 -9z m-1054 -63
c35 -32 15 -79 -49 -112 -25 -13 -63 -15 -63 -3 0 5 7 32 15 60 21 69 58 90
97 55z"/>
<path d="M1270 2006 c0 -74 255 -556 295 -556 16 0 23 20 95 290 38 144 49
171 57 155 6 -11 30 -65 53 -120 96 -226 212 -435 242 -435 22 0 26 17 32 165
3 84 17 177 44 308 21 103 34 190 30 194 -14 8 -14 7 -42 -119 -34 -150 -56
-297 -56 -373 0 -119 -8 -117 -62 12 -87 210 -199 451 -218 468 -23 21 -50 13
-50 -15 0 -23 -106 -454 -119 -485 -8 -18 -10 -17 -24 15 -9 19 -33 79 -52
133 -42 113 -135 314 -165 357 -26 37 -60 40 -60 6z"/>
<path d="M2246 1996 c-90 -90 -117 -329 -57 -499 30 -87 87 -147 138 -147 33
0 88 53 112 109 49 116 65 290 35 391 -13 44 -29 67 -80 117 -76 74 -98 79
-148 29z m131 -58 c62 -65 76 -100 81 -204 7 -149 -48 -320 -108 -339 -32 -10
-65 27 -91 99 -29 83 -37 258 -16 339 17 65 62 147 80 147 7 0 31 -19 54 -42z"/>
<path d="M3289 2014 c-11 -13 -15 -72 -17 -278 -3 -262 3 -346 25 -353 7 -3
15 11 19 32 l7 37 29 -36 c77 -94 167 -85 238 21 37 57 56 118 71 231 28 209
-21 374 -106 358 -46 -9 -119 -96 -176 -211 l-50 -100 6 115 c9 159 -9 229
-46 184z m300 -59 c17 -51 9 -267 -14 -380 -36 -174 -107 -234 -187 -158 -41
39 -58 84 -58 151 0 116 75 296 162 385 55 58 77 59 97 2z"/>
<path d="M2627 1998 c-20 -6 -42 -20 -49 -31 -11 -22 -5 -456 8 -525 10 -51
28 -32 34 35 3 34 8 65 12 69 9 8 56 -21 80 -50 9 -12 36 -49 60 -83 24 -35
49 -63 55 -63 7 0 13 3 13 7 0 18 -77 143 -108 176 -20 20 -30 37 -23 37 30 0
125 57 165 100 72 77 80 173 23 259 -47 72 -156 99 -270 69z m173 -40 c102
-70 105 -196 8 -283 -37 -34 -164 -102 -173 -93 -3 3 -8 358 -6 391 1 4 32 7
70 7 54 0 75 -5 101 -22z"/>
<path d="M3016 2001 c-13 -20 -25 -164 -32 -382 -7 -244 -4 -269 41 -269 27 0
167 28 174 35 12 12 -10 12 -88 -1 -46 -8 -85 -13 -88 -11 -2 3 4 83 13 178 9
96 17 237 18 314 1 123 -1 140 -16 143 -9 2 -19 -1 -22 -7z"/>
</g>
</svg>
